/* XPM */
static char *f513c20230e4430ab3b763a7b79c2826NS8XB4EYKWFSzQ3W[] = {
/* columns rows colors chars-per-pixel */
"32 32 14 1 ",
"  c None",
". c #393737",
"X c #295E00",
"o c #4F422F",
"O c #4B4748",
"+ c #544B4C",
"@ c #575353",
"# c #656060",
"$ c #439C00",
"% c #918F8D",
"& c #A1999A",
"* c #C5C1BF",
"= c #E1E1DF",
"- c white",
/* pixels */
"                                ",
"                                ",
"                                ",
"                                ",
"         ....       ....        ",
"        .O@#@.     .@#@O.       ",
"        .@OO#.&&&&&.#OO@.       ",
"        .@OO@*=====*@OO@.       ",
"         .O=---------=O.        ",
"        &*=-###---###-=*&       ",
"        &=-#oo##-##oo#-=&       ",
"        &=##o-##-##-o##=&       ",
"        &=##XX##-##XX##=&       ",
"        &=##$$#---#$$##=&       ",
"        &*=###--+--###=*&       ",
"         &*=---%*%---=*&        ",
"          &&**=====**&&         ",
"           .&&&&&&&&&.          ",
"          .@#OOOOOOO#@.         ",
"         .@#O#######O#@.        ",
"        .O@O.-#####-.O@O.       ",
"        .OO.&-------&.OO.       ",
"         .. &=-----=& ..        ",
"            .@*****@.           ",
"            .@@...@@.           ",
"            .@@. .@@.           ",
"            .OO. .OO.           ",
"             ..   ..            ",
"                                ",
"                                ",
"                                ",
"                                "
};
