/* XPM */
static char *_6a85e92c13d492895da21e8c707e2a2KaDgnlEcRzQKq5Kf[] = {
/* columns rows colors chars-per-pixel */
"96 128 12 1 ",
"  c None",
". c #2E1E22",
"X c #5C3000",
"o c #646466",
"O c #EB954E",
"+ c #FFAE68",
"@ c #928A8C",
"# c #B7B7BB",
"$ c #D9D9DD",
"% c #C3D5EF",
"& c #E6F7FF",
"* c white",
/* pixels */
"                 ooo                                                                            ",
"                o***o                         oooo                                              ",
"                 oo$*o                       o****o                                             ",
"                   o*o                      o$#oo$*o                       ooooo                ",
"                   o*o                       oo  o*o                      o*****o               ",
"                  o#$o                           o$o                     o*$ooo#$o              ",
"                  o$o                            o$o                      oo   o#$o             ",
"                 o$#o                           o$#o                            o#o             ",
"                o$#o                          ooooo                             o#o             ",
"              ooooo                          o#$$$#o                          ooooo             ",
"             o#$$$#o                        o#$***$#o                        o#$$$#o            ",
"            o#$***$#o                      oo$*****$oo                      o#$***$#o           ",
"           oo$*****$oo                     o$o$$$$$o$o                     oo$*****$oo          ",
"           o$o$$$$$o$o                    o#O$ooooo$O#o                    o$o$$$$$o$o          ",
"          o#O$ooooo$O#o                   o+O*o#$#o*O+o                   o#O$ooooo$O#o         ",
"          o+O*o#$#o*O+o                  o#++*$***$*++#o                  o+O*o#$#o*O+o         ",
"         o#++*$***$*++#o                 o#$*********$#o                 o#++*$***$*++#o        ",
"         o#$*********$#o                 o$***********$o                 o#$*********$#o        ",
"         o$***********$o                 o$ooo*****ooo$o                 o$***********$o        ",
"         o$ooo*****ooo$o                 o$%.$$***$$.%$o                 o$ooo*****ooo$o        ",
"         o$%.$$***$$.%$o                 o#&.@$***$@.&#o                 o$%.$$***$$.%$o        ",
"         o#&.@$***$@.&#o                 o#*XX*****XX*#o                 o#&.@$***$@.&#o        ",
"         o#*XX*****XX*#o                  o#$**o.o**$#o                  o#*XX*****XX*#o        ",
"          o#$**o.o**$#o                   oo#$**$**$#oo                   o#$**o.o**$#o         ",
"          oo#$**$**$#oo                   o#oo#####oo#o                   oo#$**$**$#oo         ",
"          o#oo#####oo#o                   o$##ooooo##$o                   o#oo#####oo#o         ",
"          o#$#ooooo##o                    o$$#o   o#$$o                    o##ooooo#$#o         ",
"           o**#o o###o                    o$*$o   o$*$o                    o###o o#**o          ",
"           o**#o o##o                     o**$o   o$**o                     o##o o#**o          ",
"           o$*$o  oo                      o$**o   o**$o                      oo  o$*$o          ",
"            o**o                           ooo     ooo                           o**o           ",
"                                                                                                ",
"                                                                                                ",
"                                                                                                ",
"                                                                                                ",
"                                                                                                ",
"                                                                                                ",
"                                                                                                ",
"                                                                                                ",
"                                                                                                ",
"                                                                                                ",
"                                           o                                                    ",
"           o                              o*o                              o                    ",
"          o*o              oo           oo*O$o          ooo               o*o                   ",
"        oo*O$o            o**o        oo#oO+*#o        o***o            oo*O$o           ooo    ",
"      oo#oO+*#o           o#$*o      o#$$$*+*$o       o$#o$*o         oo#oO+*#o         o#$$o   ",
"     o#$$$*+*$o            oo*o     o#$****$*$#o       oo o*o        o#$$$*+*$o          oo#$o  ",
"    o#$****$*$#o            o$o     o$*******$$o          o*o       o#$****$*$#o           o*o  ",
"    o$*******$$o            o$o    o#*********$#o         o*o       o$*******$$o           o*o  ",
"   o#*********$#o          o$#o    o$$ooo$****$$#oooooo   o$o      o#*********$#o         o$*o  ",
"   o$$ooo$****$$#oooooo   o$#o     o$#$.%#****$$$$$$$##ooo$#o      o$$ooo$****$$#oooooo   o*o   ",
"   o$#$.%#****$$$$$$$##ooo$#o     o$*#@.&$****$********$#o#o       o$#$.%#****$$$$$$$##ooo$#o   ",
"  o$*#@.&$****$********$#o#o      o.*$XX$***************$#o       o$*#@.&$****$********$#o#o    ",
"  o.*$XX$***************$#o       o#$*******$************$#o      o.*$XX$***************$#o     ",
"  o#$*******$************$#o       o#$****$$$******$*****$#o      o#$*******$************$#o    ",
"   o#$****$$$******$*****$#o        oo##$$##$**$$$$#*****$#o       o#$****$$$************$#o    ",
"    oo##$$##$***$$$#*****$#o          ooooo#$**#$###$****$#o        oo##$$##$**$$$$$$*****$o    ",
"      ooooo#$**####o$****#o                o$**oooooo#$*$#o           ooooo#**$#$####$****$o    ",
"         o#o#**$ooooo$**$oo                o**$o     o#$$#o               o***#oooooo#$$***#o   ",
"        o###o$**#o o#**$#o#o               o**$o     o#**#o              o$**$o##o o#ooo#**$o   ",
"        o##o o***o o***#o##o              o$**#o     o$**o              o#**$#o##o o###oo**$o   ",
"         oo  o**$o o**$oooo               o**$o      o**$o              o$**#oooo   ooo o**#o   ",
"              ooo   ooo                    ooo        ooo                oooo            ooo    ",
"                                                                                                ",
"                                                                                                ",
"                                                                                                ",
"                                                                                                ",
"                                                                                                ",
"                                                                                                ",
"                                                                                                ",
"                                                                                                ",
"                                                                                                ",
"                                                                                                ",
"                                                    o                                           ",
"                    o                              o*o                              o           ",
"                   o*o               ooo          o$O*oo           oo              o*o          ",
"    ooo           o$O*oo            o***o        o#*+Oo#oo        o**o            o$O*oo        ",
"   o$$#o         o#*+Oo#oo         o*$o#$o       o$*+*$$$#o      o*$#o           o#*+Oo#oo      ",
"  o$#oo          o$*+*$$$#o        o*o oo       o#$*$****$#o     o*oo            o$*+*$$$#o     ",
"  o*o           o#$*$****$#o       o*o          o$$*******$o     o$o            o#$*$****$#o    ",
"  o*o           o$$*******$o       o*o         o#$*********#o    o$o            o$$*******$o    ",
"  o*$o         o#$*********#o      o$o   oooooo#$$****$ooo$$o    o#$o          o#$*********#o   ",
"   o*o   oooooo#$$****$ooo$$o      o#$ooo##$$$$$$$****#%.$#$o     o#$o   oooooo#$$****$ooo$$o   ",
"   o#$ooo##$$$$$$$****#%.$#$o       o#o#$********$****$&.@#*$o     o#$ooo##$$$$$$$****#%.$#$o   ",
"    o#o#$********$****$&.@#*$o       o#$***************$XX$*.o      o#o#$********$****$&.@#*$o  ",
"     o#$***************$XX$*.o      o#$************$*******$#o       o#$***************$XX$*.o  ",
"    o#$************$*******$#o      o#$*****$******$$$****$#o       o#$************$*******$#o  ",
"    o#$************$$$****$#o       o#$*****#$$$$**$##$$##oo        o#$*****$******$$$****$#o   ",
"    o$*****$$$$$$**$##$$##oo        o#$****$###$#**$#ooooo          o#$*****#$$$***$##$$##oo    ",
"    o$****$####$#$**#ooooo           o#$*$#oooooo**$o                o#****$o####**$#ooooo      ",
"   o#***$$#oooooo#***o               o#$$#o     o$**o                oo$**$ooooo$**#o#o         ",
"   o$**#ooo#o o##o$**$o              o#**#o     o$**o               o#o#$**#o o#**$o###o        ",
"   o$**oo###o o##o#$**#o              o**$o     o#**$o              o##o#***o o***o o##o        ",
"   o#**o ooo   oooo#**$o              o$**o      o$**o               oooo$**o o$**o  oo         ",
"    ooo            oooo                ooo        ooo                    ooo   ooo              ",
"                                                                                                ",
"                                                                                                ",
"                                                                                                ",
"                                                                                                ",
"                                                                                                ",
"                                            o       o                                           ",
"            o       o                      o$o     o$o                      o       o           ",
"           o$o     o$o                    o#*$ooooo$*#o                    o$o     o$o          ",
"          o#*$ooooo$*#o                   o$**o$$$o**$o                   o#*$ooooo$*#o         ",
"          o$**o$$$o**$o                  o#$*********$#o                  o$**o$$$o**$o         ",
"         o#$*********$#o                 o#***********#o                 o#$*********$#o        ",
"         o#***********#o                 o$***********$o                 o#***********#o        ",
"         o$***********$o                 o$***********$o                 o$***********$o        ",
"         o$***********$o                 o#$*********$#o                 o$***********$o        ",
"         o#$*********$#o                 o##$$$***$$$##o                 o#$*********$#o        ",
"         o##$$$***$$$##o                 o#o#$*****$#o#o                 o##$$$***$$$##o        ",
"         o#o#$*****$#o#o                  o#$*******$#o                  o#o#$*****$#o#o        ",
"          o#$ooo****$#o                   o$$**oooo*$$o                   o#$*******$#o         ",
"          o$o***o***$$o                   o##$o****o##o                   o$$****oooooo         ",
"          oo*$oo***$##o                   o#$o*$oo#$o#o                   o##$**o****$o         ",
"          oo*o******$#o                   oo*o*o**oo*oo                   o#$**o*$ooo#$o        ",
"          oo$o*******oo                   o#*o*o*****#o                   oo**o*#o***oo         ",
"          oo#$o******#o                   o$*o*o$****$o                   o#**o*o****#o         ",
"          o$o#$o$****$o                   o$*o$*o#***$o                   o$**o$o****$o         ",
"          o$*o#$o#***$o                   o$$*o#****$$o                   o$**o$o#***$o         ",
"          o#$*o#****$$o                   o#$$$$$$$$$#o                   o$$*o#****$#o         ",
"          o##$$$$$$$$$o                   o###o###o###o                   o$$$$$$$$$##o         ",
"           o##o#####$$o                   o#$#ooooo#$#o                   o$$#####o##o          ",
"           o###oooo$*#o                   o$*#o   o#*$o                   o#*$oooo###o          ",
"            o##o o#**o                    o**$o   o$**o                    o**#o o##o           ",
"             oo  o$*$o                    o$**o   o**$o                    o$*$o  oo            ",
"                 o##o                      ooo     ooo                      o##o                ",
"                                                                                                "
};
