/* XPM */
static char *c7169951751a46839719cb36b187a842j8CZfdBC9ZHq6U9s[] = {
/* columns rows colors chars-per-pixel */
"32 32 6 1 ",
"  c None",
". c #087A67",
"X c #8F392F",
"o c #E56019",
"O c #1EA24B",
"+ c #F5AE3F",
/* pixels */
"                                ",
"                                ",
"                      OOOO  ..  ",
"                      OOOO  ..  ",
"                        ..OO..  ",
"                        ..OO..  ",
"                    XXXX....    ",
"                    XXXX....    ",
"                  XX++ooXXXX    ",
"                  XX++ooXXXX    ",
"                XXoo++++ooXX    ",
"                XXoo++++ooXX    ",
"              XXoo++++ooXX      ",
"              XXoo++++ooXX      ",
"            XX++oo++ooXX        ",
"            XX++oo++ooXX        ",
"          XXoo++++ooXX          ",
"          XXoo++++ooXX          ",
"        XXXX++ooXX              ",
"        XXXX++ooXX              ",
"      XX++ooooXX                ",
"      XX++ooooXX                ",
"    XX++ooXX                    ",
"    XX++ooXX                    ",
"  XXooooXX                      ",
"  XXooooXX                      ",
"  XXXX                          ",
"  XXXX                          ",
"                                ",
"                                ",
"                                ",
"                                "
};
