/* XPM */
static char *_934786be9a14a0dc9c90cc6336659eayeAACn1b4QbTLDo5[] = {
/* columns rows colors chars-per-pixel */
"32 32 134 2 ",
"   c None",
".  c #070707",
"X  c #080807",
"o  c #0D0D0B",
"O  c #11110E",
"+  c #141412",
"@  c #181713",
"#  c #1D1C15",
"$  c #201F16",
"%  c #201F19",
"&  c #232115",
"*  c #24231B",
"=  c #28271D",
"-  c #2A281C",
";  c #302D1E",
":  c #2F2D22",
">  c #302F23",
",  c #343223",
"<  c #383627",
"1  c #3D3A26",
"2  c #363529",
"3  c #38372A",
"4  c #3C3B2A",
"5  c #413D25",
"6  c #413E2A",
"7  c #403E30",
"8  c #43412D",
"9  c #49452E",
"0  c #4B482E",
"q  c #454332",
"w  c #494632",
"e  c #4C4A35",
"r  c #444238",
"t  c #494738",
"y  c #4D4B3A",
"u  c #514E35",
"i  c #514E3A",
"p  c #555335",
"a  c #5B5535",
"s  c #5E5836",
"d  c #55523B",
"f  c #5A563D",
"g  c #5C593C",
"h  c #615D3E",
"j  c #66613E",
"k  c #68653F",
"l  c #5E5B40",
"z  c #625E42",
"x  c #685E43",
"c  c #656143",
"v  c #6A6545",
"b  c #6E6946",
"n  c #6F6A49",
"m  c #726C46",
"M  c #736D49",
"N  c #76704A",
"B  c #7A744B",
"V  c #7E794E",
"C  c #807246",
"Z  c #827B4E",
"A  c #897F4E",
"S  c #837D51",
"D  c #89824B",
"F  c #878051",
"G  c #878052",
"H  c #888051",
"J  c #888052",
"K  c #898252",
"L  c #8A8352",
"P  c #8B8453",
"I  c #8C8553",
"U  c #8C8454",
"Y  c #8E8554",
"T  c #8C8456",
"R  c #8B8354",
"E  c #908754",
"W  c #918754",
"Q  c #918954",
"!  c #908855",
"~  c #938A55",
"^  c #908856",
"/  c #928956",
"(  c #928A56",
")  c #928B57",
"_  c #948B54",
"`  c #968D57",
"'  c #978E57",
"]  c #928A56",
"[  c #988E56",
"{  c #908758",
"}  c #968D59",
"|  c #988F5A",
" . c #9A9159",
".. c #9B9259",
"X. c #9B935B",
"o. c #9C925B",
"O. c #9C935B",
"+. c #9C945B",
"@. c #9D945B",
"#. c #9A905C",
"$. c #9D935C",
"%. c #9D955C",
"&. c #9E955C",
"*. c #9F965D",
"=. c #9F965F",
"-. c #9C935B",
";. c #A09654",
":. c #A29755",
">. c #A1975D",
",. c #A0965E",
"<. c #A49A5E",
"1. c #A69A5E",
"2. c #A19C5C",
"3. c #A69E5F",
"4. c #A49A5E",
"5. c #A99E5F",
"6. c #B3A75D",
"7. c #A79C62",
"8. c #A49B60",
"9. c #A99F61",
"0. c #A89D62",
"q. c #ABA162",
"w. c #ACA262",
"e. c #ABA162",
"r. c #B0A563",
"t. c #B0A564",
"y. c #B2A664",
"u. c #B2A764",
"i. c #B3A764",
"p. c #B3A865",
"a. c #B4A864",
"s. c #B5AA65",
"d. c #B7AB66",
"f. c #B6AA66",
/* pixels */
"                                                                ",
"                      d f z d w t f d                           ",
"                  p d f m b l l l i i y t                       ",
"                p i 6 j M l M N n l z l f y q                   ",
"              d f e @ 9 n B ~ G Z z g y f u : 3                 ",
"              g l c k ~ n V j S T n & = v u o 7                 ",
"            g z z V 5.a.V & o g M v 4 w v p 6 i u               ",
"          p h v v ' a.a.Z + * s B c l M M v l i i i             ",
"          0 9 S B Q >.r.' 4 8 m { Z M M n l e = q t             ",
"        b u , 1.' & w Z { S B ..@.W M z z d , @ 2 y w           ",
"      g v J G { h o * B 2.;.Z I 3...S 6 = q q - e i i 3         ",
"      g V p.7.S h 4 , #.=.@.>...V B V o # 6 m m l q , y         ",
"    k N o.Y T S K m ) p.w.w.@.p 3 z b O : u S M d > # 8 w       ",
"    m M , < B r.@.~ d.d.d.1.) = % N ~ j z m Z m f w : w p       ",
"    x z # * M f.@.L u.w.e.J S g g ~ #.Z M z n v l f q z d       ",
"  h N S q 0 >.w.4.! } } P G *.8.' S K B b d d l i i d d f 4     ",
"  d N =.V ~ 4.} V I @.5.8.J 8.q.3.Z v v b b d d i : i w 2 y     ",
"  f Z } K o.Z u e B d.a.f.8.$.J N h e d v e + # f - d q o 7 *   ",
"  h S K M K $ X + v <.5.K #.V B N O + i b , + % v h v b > r     ",
"  h B v l l + * # j V 1 t c b { Z o = g B 4 # i v g b M d t     ",
"  g b h g z d h g V j # 1 Z J M K a j ~ V M g b c d y v d w     ",
"  d g g M o.S S D 0...j N ..~ n ' f.p.1.B l l n c 7 o # y i     ",
"    i l ' 8.M g V 7.6.~ W ' h u ' 5.=.m ; + w l c 3 o + q w     ",
"    f c ` N < O i =.:.V I 9 $ o & s A p + * * l z d : 2 t w     ",
"    f m @.V = # h >.Z 8 - o X X X o # u 9 4 g l M c y t y ,     ",
"    g Z 4.T p 6 B S h & X O X o O o O a ..M l f n M l t y       ",
"      ' =.K N Z V T j # o = X X + * , = P v d y c c f q ,       ",
"        m c m N M P z # + = # q f f t 3 B S v y f g a 3         ",
"            5 b D V e , > % @ 9 M g d 8 N I N d p w             ",
"                V m t 4 , 4 u m C b g y j B s 4                 ",
"                  z p     8 g v M b u q u p                     ",
"                                                                "
};
