/* XPM */
static char *_8b1b0d8a6e14b46f2db4def8a6258ca85hTfRul5MsfzQPS[] = {
/* columns rows colors chars-per-pixel */
"32 32 115 2 ",
"   c #6E9931",
".  c #6F9931",
"X  c #729B31",
"o  c #709D32",
"O  c #729E33",
"+  c #729F33",
"@  c #759E32",
"#  c #749F33",
"$  c #759F33",
"%  c #799D33",
"&  c #73A033",
"*  c #75A133",
"=  c #75A234",
"-  c #76A334",
";  c #79A133",
":  c #7AA033",
">  c #78A334",
",  c #79A334",
"<  c #7CA034",
"1  c #7EA334",
"2  c #7EA335",
"3  c #78A434",
"4  c #79A434",
"5  c #78A535",
"6  c #7AA635",
"7  c #7BA635",
"8  c #7BA735",
"9  c #7BA736",
"0  c #7CA535",
"q  c #7FA434",
"w  c #7FA535",
"e  c #7DA635",
"r  c #7DA735",
"t  c #7EA635",
"y  c #7EA735",
"u  c #7CA736",
"i  c #7DA736",
"p  c #7EA736",
"a  c #7DA835",
"s  c #7CA836",
"d  c #7DA836",
"f  c #7DA936",
"g  c #7EA936",
"h  c #7FA936",
"j  c #7EA937",
"k  c #7EAA36",
"l  c #7FAA36",
"z  c #7EAA37",
"x  c #7FAA37",
"c  c #7FAB37",
"v  c #81A636",
"b  c #80A736",
"n  c #80A836",
"m  c #81A936",
"M  c #80AA36",
"N  c #80AA37",
"B  c #80AB37",
"V  c #81AB37",
"C  c #82AA36",
"Z  c #82AB37",
"A  c #80AC37",
"S  c #81AC37",
"D  c #82AC37",
"F  c #82AD37",
"G  c #83AD37",
"H  c #83AE37",
"J  c #84AC37",
"K  c #85AD37",
"L  c #82AD38",
"P  c #83AD38",
"I  c #83AE38",
"U  c #84AE38",
"Y  c #85AE38",
"T  c #84AF38",
"R  c #85AF38",
"E  c #87AE38",
"W  c #86AF38",
"Q  c #87AF38",
"!  c #85B038",
"~  c #85B039",
"^  c #86B038",
"/  c #86B138",
"(  c #87B138",
")  c #86B039",
"_  c #87B039",
"`  c #86B139",
"'  c #87B139",
"]  c #88B239",
"[  c #89B239",
"{  c #88B339",
"}  c #89B339",
"|  c #8BB239",
" . c #8AB339",
".. c #89B33A",
"X. c #8AB33A",
"o. c #89B43A",
"O. c #8AB43A",
"+. c #8BB43A",
"@. c #8BB53A",
"#. c #8CB53A",
"$. c #8CB63A",
"%. c #8DB63A",
"&. c #8CB63B",
"*. c #8DB73B",
"=. c #8EB73B",
"-. c #8EB83B",
";. c #8FB83B",
":. c #91B83B",
">. c #90B93C",
",. c #91B93C",
"<. c #92B93C",
"1. c #91BA3C",
"2. c #94BA3C",
"3. c #95BB3C",
"4. c #96BB3C",
/* pixels */
"T d Z D d d Z D d 5 I t D ~ D { T 9 D T d d Z J c 9 c d D ` d  .",
"+ Z Z d t  .-.D ` ` ..Z  .9 9 T & D d d t ..#.D ! ! ..c  .9 d D ",
"` #.` ..-.3.-.#.#. .1.J d 9 c d `  .!  .:.2.-.*.-. .1.~ d 9 D d ",
"..d D t Z D  .` I d Z t - d  .D  .Z D t d ! ` ` J d D d 3 c  .D ",
"d d t b Z D I 5 # t ..v J  .D J d d d b Z d D 5 + t ..q D  .c T ",
"c I  .1.-.I d d T T T =.#.` #.` c I  .1.1.` c 9 J ..J #. .{ -.` ",
"` . I d { ` ` D J d t D 5 D d ..` . I c ..` J I J d t D 5 d d  .",
"d ~ `  .I  .{ D + ; ; 3 5   + T d I `  .I .. .D + ; ; 3 3   + ~ ",
"c -.`  .T ..T D ..I Z #.D J -.J d -.`  .J ( T Z ..D I -.I ..#.J ",
"c I d 5 Z t 0 % b #.3.#.! t d ` I I d 5 Z t 5 % b #.3. .T 5 t ` ",
"c { d ` %  .T v d I  .#.` 5 - I d ..Z D ; | T v I Z  . .` d 5 d ",
"c  . . .4.:.T d -...% t D #.` 5 c { #.#.3.:.T Z #...% t D  .` d ",
"-.1.#...Z t t d 9 # 0 % t D * J -.1.#. .Z t t d t # % 0 t D * I ",
"I  ...5 t D 0 X Z ` d  .Z 3 ! ! D  .` 5 t T 5 X d ` d  .Z * T I ",
" .` c T ` ` c T ` d  . .#. .-. .....D ` ` T d J ..d  . .-. .=.#.",
"o.9 I I t & 5 2 t D ` I * D D D  .5 I D d * d t d D ` D * J D Z ",
"J d D ! d d d D Z 5 d d D ` c  .~ d D I d d Z J c 9 c d D ` d  .",
"& D t d d  .-.` ! `  .Z  .9 d D + Z d d t ..#.D ! ! ..c  .9 d D ",
"`  .! ..:.2.-. .-. .1.T d 5 D d ` ..` ..-.2.-.*.-. .1.~ d 9 D d ",
" .c D t Z J { ` I d c d - c  .D ..Z D t Z D ` ! J d D d 3 c  .D ",
"d d d t Z d ~ 5 * t ..2 J  .d ` d d d b D Z ~ 5 + t ..q D  .c T ",
"c I ..1.1.I d d I T T #.#.` -.` D D  .1.1.D d d J ..J #. .{ -.` ",
"T + I d  .` ` D ` t t D 5 D c  .` + D d  .~ ` I J d t D 5 d d  .",
"t T ` #.I  .` Z + ; % 0 *   + I d D `  .I  .` D + ; ; 3 3   + ~ ",
"c ;.`  .` ! T D  .I I #.I T #.I d -.`  .J ( T Z ..D I -.I ..#.J ",
"c I d 5 Z t 0 ; t -.4.....5 d ` I I d 5 Z t 5 % b #.3. .T 5 t ` ",
"d ..d J ; | J t I D  .#.J t 3 D d ..Z D ; | T v I Z  . .` d 5 d ",
"I ` #.#.4.=.T Z  . .% q D #.` 5 c { #.#.3.:.T Z #...% t D  .` d ",
"#.:.#...Z t t d 5 # : : t d # I -.1.#. .Z t t d t # % 0 t D * I ",
"I #...5 t J t   Z ` Z ( Z 0 T ` D  .` 5 t T 5 X d ` d  .Z * T I ",
"..` d ` ` ` d ` ..c  . .#...-. .....D ` ` T d J ..d  . .-. .=.#.",
" .t I T 5 & t 2 d D ` D * J I c  .5 I D d * d t d D ` D * J D Z "
};
