/* XPM */
static char *ed4708c2ecc74fc0d82348c4cca14cf1GC5f6Lh0PsjqG9eN[] = {
/* columns rows colors chars-per-pixel */
"32 32 14 1 ",
"  c None",
". c #393737",
"X c #295E00",
"o c #4F422F",
"O c #4B4748",
"+ c #544B4C",
"@ c #575353",
"# c #656060",
"$ c #439C00",
"% c #918F8D",
"& c #A1999A",
"* c #C5C1BF",
"= c #E1E1DF",
"- c white",
/* pixels */
"                                ",
"                                ",
"                                ",
"                                ",
"         ....       ....        ",
"        .O@#@.     .@#@O.       ",
"        .@OO#.&&&&&.#OO@.       ",
"        .@OO@*=====*@OO@.       ",
"         .O=---------=O.        ",
"        &*=-###---###-=*&       ",
"        &=-#oo##-##oo#-=&       ",
"        &=##o-##-##-o##=&       ",
"        &=##XX##-##XX##=&       ",
"        &=##$$#---#$$##=&       ",
"        &*=###--+--###=*&       ",
"         &*=---%*%---=*&        ",
"          &&**=====**&&         ",
"           .&&&&&&&&&&          ",
"          .@#OOOOOOO#@.         ",
"         .@#########@OO.        ",
"         .##O-#####-.OO.        ",
"         .##.-------&..         ",
"          ..&=-----=&           ",
"            .O*****@.           ",
"             .O...##.           ",
"              .. .##.           ",
"                 .@@.           ",
"                  ..            ",
"                                ",
"                                ",
"                                ",
"                                "
};
