/* XPM */
static char *_f0b3a715a5d4ca9d65877ee9dc140a9XRkXNTT1pISBpzt7[] = {
/* columns rows colors chars-per-pixel */
"32 32 9 1 ",
"  c None",
". c #393737",
"X c #4B4748",
"o c #575353",
"O c #656060",
"+ c #A1999A",
"@ c #C5C1BF",
"# c #E1E1DF",
"$ c white",
/* pixels */
"                                ",
"                                ",
"                                ",
"                                ",
"                                ",
"                                ",
"                                ",
"                                ",
"         ....       ....        ",
"        .XoOo.     .oOoX.       ",
"        .oOOO.+++++.OOOo.       ",
"        .oOOo#######oOOo.       ",
"         .oO$$$$$$$$$Oo.        ",
"        +@$$$$$$$$$$$$$@+       ",
"        +#$$$$$$$$$$$$$#+       ",
"        +#$$$$$$$$$$$$$#+       ",
"        +#$$$$$$$$$$$$$#+       ",
"        +##$$$$$$$$$$$##+       ",
"        +@##$$$$$$$$$##@+       ",
"         +@###########@+        ",
"          ++@@#####@@++         ",
"           .+++++++++.          ",
"          .oOoOOOOOoOo.         ",
"         .OOoO$$$$$OXoX.        ",
"        .OOo.$$$$$$$.XX.        ",
"        .OO.+$$$$$$$+..         ",
"         .. +#$@#@$#+           ",
"            .o+#$$+o.           ",
"             .+@#@+O.           ",
"              .+++OO.           ",
"                 .oo.           ",
"                  ..            "
};
