/* XPM */
static char *_dcb95555aac4feaa5e7b0b05ae8a61fqFwcPDYMSEtVb7mI[] = {
/* columns rows colors chars-per-pixel */
"32 32 15 1 ",
"  c None",
". c #393737",
"X c #403D3D",
"o c #295E00",
"O c #4F422F",
"+ c #4B4748",
"@ c #544B4C",
"# c #575353",
"$ c #656060",
"% c #439C00",
"& c #918F8D",
"* c #A1999A",
"= c #C5C1BF",
"- c #E1E1DF",
"; c white",
/* pixels */
"                                ",
"                                ",
"                                ",
"                                ",
"           ..   ...             ",
"          .++. .#$+.            ",
"          .X+.*.++$+.           ",
"          .X=--=++$+.           ",
"         *=-;;;;;;##+*          ",
"        .-;;$$$;;;;;;-*         ",
"       .O$;$$OO$;;;;;;=*        ",
"       .;$;$$;O$$;;;;;-*        ",
"       .o$;$$oo$$;;;;;-*        ",
"       .%$;;$%%$$;;;;;-*        ",
"       .+-@;;$$$;;;;;;=*        ",
"        *&=&;;;;;;;;;-*         ",
"         **=-------=**          ",
"           *********            ",
"           .###$$$#.            ",
"           .#$$$.$$.            ",
"           .#$$.$$#.            ",
"           *-;.$$#.*            ",
"            *-.##.=**           ",
"           .+==..++.=*          ",
"          .++..###+.=*          ",
"          .++. .##++.           ",
"           ..   .++.            ",
"                 ..             ",
"                                ",
"                                ",
"                                ",
"                                "
};
