/* XPM */
static char *_8bd957ab055466dbd63b76ac86d7c266A1tJ7Jg2Y68FhFD[] = {
/* columns rows colors chars-per-pixel */
"32 32 152 2 ",
"   c None",
".  c #281C14",
"X  c #2E1D1A",
"o  c #152513",
"O  c #122812",
"+  c #1A2F17",
"@  c #1A2E19",
"#  c #2A251C",
"$  c #30231E",
"%  c #332422",
"&  c #3A2624",
"*  c #352920",
"=  c #3B2C25",
"-  c #223521",
";  c #253B24",
":  c #343527",
">  c #323927",
",  c #402C26",
"<  c #443129",
"1  c #4B362C",
"2  c #503D2F",
"3  c #503D35",
"4  c #1C4F19",
"5  c #1F551B",
"6  c #23461F",
"7  c #214F1E",
"8  c #245B17",
"9  c #23531C",
"0  c #255B1B",
"q  c #285D1D",
"w  c #2B601D",
"e  c #254423",
"r  c #254D21",
"t  c #2A4B25",
"y  c #2A4428",
"u  c #275323",
"i  c #295324",
"p  c #265B21",
"a  c #2A5D22",
"s  c #2D6322",
"d  c #2E6C23",
"f  c #316623",
"g  c #386625",
"h  c #356A23",
"j  c #396E24",
"k  c #3D7225",
"l  c #594237",
"z  c #5A4B36",
"x  c #5B443A",
"c  c #5E493C",
"v  c #614B3E",
"b  c #427626",
"n  c #457927",
"m  c #497C21",
"M  c #477B28",
"N  c #4A7D28",
"B  c #675144",
"V  c #6A5446",
"C  c #6C5749",
"Z  c #4E8229",
"A  c #52852A",
"S  c #56892B",
"D  c #5B8D2C",
"F  c #5E912D",
"G  c #66962F",
"H  c #65962F",
"J  c #62942E",
"K  c #68972F",
"L  c #65982F",
"P  c #66982F",
"I  c #67982F",
"U  c #67982F",
"Y  c #68992F",
"T  c #69992F",
"R  c #699A2F",
"E  c #699A2F",
"W  c #689830",
"Q  c #6A9B30",
"!  c #6B9B30",
"~  c #6B9C30",
"^  c #6C9D30",
"/  c #6D9D31",
"(  c #6E9D30",
")  c #6D9E30",
"_  c #6E9F31",
"`  c #6C9D30",
"'  c #729B31",
"]  c #6AA22E",
"[  c #6FA031",
"{  c #71A031",
"}  c #73A330",
"|  c #72A231",
" . c #72A132",
".. c #72A332",
"X. c #73A332",
"o. c #74A331",
"O. c #75A333",
"+. c #72A432",
"@. c #75A532",
"#. c #74A432",
"$. c #76A532",
"%. c #76A533",
"&. c #75A633",
"*. c #77A733",
"=. c #77A732",
"-. c #74A432",
";. c #78A733",
":. c #78A833",
">. c #79A833",
",. c #7AA933",
"<. c #79AA33",
"1. c #7AAA33",
"2. c #7BAB33",
"3. c #7BAA33",
"4. c #7AA934",
"5. c #7AAA34",
"6. c #7CAB34",
"7. c #7DAD34",
"8. c #7CAC35",
"9. c #7EAC34",
"0. c #7EAD34",
"q. c #7EAE35",
"w. c #7FAF35",
"e. c #7CAB34",
"r. c #80AF34",
"t. c #80AF35",
"y. c #81B035",
"u. c #81B135",
"i. c #82B035",
"p. c #82B135",
"a. c #83B135",
"s. c #82B235",
"d. c #81B136",
"f. c #82B136",
"g. c #83B136",
"h. c #82B236",
"j. c #83B236",
"k. c #83B336",
"l. c #84B236",
"z. c #83B436",
"x. c #84B436",
"c. c #85B436",
"v. c #86B436",
"b. c #86B537",
"n. c #87B636",
"m. c #87B637",
"M. c #87B737",
"N. c #84B336",
"B. c #88B637",
"V. c #88B837",
"C. c #89B837",
"Z. c #8AB938",
/* pixels */
"                                                                ",
"                          w b k a 0                             ",
"                        j b N A A g 0 q                         ",
"                      ] B.$.J n k j M N g q                     ",
"                    G Z.z.9.9.L b H ! D n f 9 r                 ",
"                8 j E Z.x.x.*.F Z 3.n.2.E N a i 5               ",
"              m D Z J &.4.&.&.J S 3.a.w.$.N f u e               ",
"            f A A j A F ..L A N b E 3.=.S n f s q 0             ",
"          b ' n.+.D Z n Z k k n j Z H D M A F A j s r           ",
"        q $.B.B.a.N.$.k k F [ ) H N b k k ^ t.! J b i           ",
"        q F t.n.t.a.X.n S w.a.a.N.4.D M A $.N.o.L b i r         ",
"      9 a Z I H ^ ^ S N 8.n.a.V.x.a.+.S H 9.a.X.D j f h 5       ",
"      Z F Z N N D ^ X.H t.N.z.$.4.4.) A I $.] F Z h j g p y     ",
"    w [ w.H A D 4.a.t.o.J ;.X.+.^ H A n A F A n j d f s a e     ",
"    s F 8.+.D X.a.9.$.H A A S F D A b f k n b k j h f s a 6     ",
"  w h k S D A E 9.$.H N k b n n N b j k g b n A S A b k j a 9   ",
"  d H S N b S S D Z M n A A A J F D D ) S A H ) X.H A n k s p   ",
"  s Z S b ) n.a.P M N J K } 3.+.I H H X.) H X.=.X.P F N k j p   ",
"  p f h k 3.B.a.9.D D ;.r.t.9.9.3.! F [ =.E ) 3.! J Z k j f 9   ",
"  0 k k k H 9.;.^ S D n.n.a.9.r.4.^ D H S Z D E A b j j h e o   ",
"    d k j N H D D N Z 4.e.E X._ D Z n N k k k N b j d g a e     ",
"    0 w t g b b n b j S K M M M N k g s d h f k j s i a t -     ",
"        @ r g h h j g j M n k k k h s d j d s s a i y ; @       ",
"            e a r u p t a h j h i t t p s t u p e - - o         ",
"              +   o e 6 ; i i i y y i p u 6 e ; O               ",
"                      * = : : : = = : : > #                     ",
"                      < v 1 1 < < = < = = %                     ",
"                    . z 3 2 C x x < l < = &                     ",
"                        # v B x V < l l %                       ",
"                          *   , 3   X < X                       ",
"                                                                ",
"                                                                "
};
